<?xml version="1.0"?>
<svg width="640" height="480" xmlns="http://www.w3.org/2000/svg" xmlns:svg="http://www.w3.org/2000/svg">
 <!-- Created with SVG-edit - https://github.com/SVG-Edit/svgedit-->
 <g class="layer">
  <title>Layer 1</title>
  <path d="m179,117c-3.6,-1.49 -4.21,-1.84 -4.84,-2.21c-0.65,-0.39 -1.68,-1 -2.42,-1.39c-0.76,-0.41 -1.55,-0.8 -2.74,-1.4c-0.4,-0.2 -1.2,-0.6 -2,-1c-0.8,-0.4 -2,-1 -2.4,-1.2c-0.81,-0.4 -1.68,-0.77 -2.14,-0.93c-0.99,-0.33 -2.12,-0.55 -2.74,-0.63c-1.33,-0.16 -2.03,-0.18 -2.74,-0.2c-0.71,-0.03 -1.43,-0.04 -2.13,-0.04c-1.99,-0.01 -2.6,0 -3.19,0c-1.14,0.01 -1.7,0.02 -2.26,0.05c-1.73,0.09 -2.34,0.16 -2.97,0.23c-1.3,0.15 -1.97,0.27 -2.65,0.39c-0.69,0.13 -1.39,0.26 -2.78,0.65c-0.7,0.2 -1.41,0.42 -2.8,0.94c-0.7,0.26 -1.4,0.55 -2.1,0.84c-0.7,0.29 -2.1,0.89 -2.8,1.19c-0.7,0.3 -1.39,0.6 -2.08,0.89c-0.68,0.29 -1.35,0.58 -2.01,0.85c-1.88,0.79 -2.47,1.04 -3.04,1.27c-1.09,0.45 -1.61,0.66 -2.11,0.87c-0.97,0.41 -2.34,1.01 -2.77,1.21c-0.84,0.39 -1.64,0.77 -2.4,1.12c-1.06,0.48 -1.73,0.74 -2.68,1.07c-0.61,0.22 -1.82,0.59 -2.41,0.83c-0.91,0.36 -1.82,0.89 -2.4,1.35c-0.63,0.49 -1.24,1.08 -1.88,1.72c-0.69,0.67 -1.4,1.4 -1.77,1.77c-0.75,0.76 -1.13,1.15 -1.86,1.94c-0.73,0.79 -1.4,1.6 -1.73,2c-0.64,0.8 -0.95,1.2 -1.56,2c-0.91,1.2 -1.2,1.6 -1.8,2.41c-0.3,0.41 -0.9,1.24 -1.2,1.67c-0.91,1.33 -1.2,1.8 -1.8,2.74c-0.3,0.47 -0.9,1.42 -1.2,1.89c-0.89,1.37 -1.2,1.8 -1.79,2.66c-0.29,0.42 -0.86,1.27 -1.13,1.71c-0.79,1.32 -1.02,1.8 -1.44,2.77c-0.22,0.5 -0.6,1.56 -0.76,2.11c-0.34,1.16 -0.61,2.4 -0.73,3.05c-0.13,0.67 -0.25,1.36 -0.38,2.07c-0.13,0.73 -0.25,1.48 -0.54,3.04c-0.15,0.81 -0.32,1.64 -0.49,2.49c-0.18,0.87 -0.36,1.76 -0.55,2.67c-0.19,0.93 -0.4,1.88 -0.79,3.84c-0.2,1.01 -0.4,2.04 -0.6,3.08c-0.2,1.05 -0.39,2.11 -0.57,3.18c-0.18,1.07 -0.36,2.13 -0.67,4.25c-0.15,1.04 -0.28,2.08 -0.41,3.11c-0.12,1.01 -0.24,2.02 -0.35,3.01c-0.11,0.98 -0.21,1.96 -0.41,3.88c-0.1,0.95 -0.2,1.88 -0.3,2.81c-0.1,0.92 -0.2,1.84 -0.3,2.75c-0.1,0.91 -0.2,1.81 -0.4,3.61c-0.1,0.9 -0.2,1.8 -0.3,2.7c-0.1,0.91 -0.2,1.82 -0.3,2.73c-0.1,0.92 -0.2,1.85 -0.4,3.73c-0.1,0.95 -0.2,1.92 -0.3,2.89c-0.1,0.98 -0.2,1.96 -0.3,2.95c-0.1,0.99 -0.2,1.99 -0.4,3.99c-0.1,1 -0.2,2.01 -0.3,3.04c-0.1,1.06 -0.2,2.15 -0.3,3.28c-0.1,1.19 -0.21,2.44 -0.4,5.18c-0.1,1.49 -0.2,3.06 -0.3,4.7c-0.1,1.68 -0.19,3.41 -0.27,5.16c-0.08,1.76 -0.16,3.52 -0.27,6.98c-0.05,1.68 -0.08,3.33 -0.11,4.95c-0.02,1.6 -0.04,3.19 -0.05,4.78c-0.01,1.59 -0.01,3.19 -0.01,6.43c0,1.66 0,3.35 0,5.04c0,1.7 0,3.39 0,5.07c0,1.65 0,3.28 0,6.38c0,1.47 0,2.89 0,4.25c0,1.32 0,2.6 0,3.85c0,1.22 0,2.41 0,4.73c0,1.14 0,2.28 0.01,3.4c0.01,1.1 0.03,2.19 0.06,3.25c0.04,1.04 0.07,2.06 0.26,4.02c0.09,0.94 0.23,1.84 0.39,2.71c0.15,0.85 0.33,1.66 0.54,2.45c0.2,0.76 0.4,1.49 0.91,2.84c0.24,0.64 0.51,1.25 0.8,1.83c0.28,0.57 0.59,1.13 0.92,1.67c0.33,0.54 0.68,1.09 1.45,2.16c0.4,0.56 0.83,1.12 1.27,1.67c0.44,0.56 0.88,1.1 1.31,1.63c0.42,0.51 0.83,1 1.59,1.87c0.33,0.38 0.65,0.73 0.95,1.04c0.28,0.29 0.57,0.57 0.87,0.82c0.3,0.25 0.62,0.5 1.35,0.97c0.41,0.26 0.87,0.52 1.36,0.79c0.51,0.28 1.05,0.55 1.61,0.82c0.57,0.28 1.16,0.55 2.36,1.06c0.6,0.25 1.2,0.49 1.81,0.71c0.61,0.23 1.23,0.44 1.86,0.65c0.64,0.21 1.3,0.42 2.66,0.81c0.71,0.2 1.44,0.4 2.19,0.6c0.76,0.2 1.54,0.39 2.34,0.57c0.81,0.18 1.63,0.37 3.31,0.67c0.85,0.15 1.71,0.28 2.57,0.4c0.85,0.12 1.7,0.22 2.53,0.32c0.81,0.09 1.59,0.17 3.07,0.28c0.68,0.05 1.33,0.08 1.94,0.11c0.59,0.02 1.16,0.04 1.72,0.05c0.55,0.01 1.09,0.01 2.17,0.01c0.55,0 1.12,0 1.69,0c0.57,0 1.15,0 1.72,0c0.57,0 1.14,0 2.26,0c0.55,0 1.08,0 1.61,0c0.52,0 1.04,0 1.55,0c0.51,0 1.01,0 2.01,0c0.5,0 1,0 1.49,0c0.49,0 0.97,0 1.44,0c0.46,0 0.9,0 1.74,0c0.39,0 0.76,0 1.11,0c0.33,0 0.64,0 0.93,0c0.27,0 0.52,0 0.96,0c0.19,0 0.36,0 0.52,0c0.14,0 0.27,0 0.39,0c0.11,0 0.22,0 0.42,0c0.1,0 0.2,0 0.3,0c0.11,0 0.22,0 0.33,0c0.12,0 0.25,0 0.53,0c0.15,0 0.32,0 0.49,0c0.17,0 0.35,0 0.52,0c0.17,0 0.34,0 0.66,0c0.15,0 0.31,0.14 0.97,-0.09c0.8,-0.28 1.55,-0.98 2.18,-1.41c0.81,-0.56 1.03,-1.36 1.63,-2.1c0.62,-0.76 1.19,-1.2 1.89,-1.9c0.7,-0.7 1.24,-1.23 1.7,-1.99c0.43,-0.7 0.9,-1.71 1.2,-2.31c0.4,-0.8 0.8,-1.6 1.2,-2.4c0.5,-1 0.85,-1.58 1.11,-2.4c0.31,-0.98 0.28,-1.82 0.57,-2.8c0.18,-0.61 0.55,-1.6 0.69,-2.39c0.19,-1.04 0.64,-1.67 0.9,-2.53c0.26,-0.83 0.47,-1.76 0.77,-2.43c0.38,-0.87 0.35,-1.76 0.35,-2.77c0,-0.81 0,-1.73 0,-2.47c0,-1.03 0,-2.01 0,-2.76c0,-0.9 0,-1.76 0,-2.7l0,-0.89" fill="none" id="svg_2" stroke="#000000"/>
  <path d="m233,115c0,2.06 0.01,2.77 0.04,3.65c0.02,0.51 0.13,2.35 0.19,3.08c0.06,0.79 0.14,1.64 0.21,2.54c0.08,0.96 0.18,1.97 0.27,3.04c0.1,1.12 0.3,3.52 0.4,4.79c0.1,1.32 0.21,2.68 0.32,4.08c0.12,1.43 0.24,2.9 0.39,4.39c0.15,1.51 0.51,4.59 0.73,6.14c0.22,1.57 0.47,3.15 0.73,4.75c0.27,1.62 0.55,3.25 0.84,4.91c0.29,1.68 0.89,5.12 1.19,6.89c0.3,1.78 0.59,3.58 0.88,5.38c0.28,1.79 0.55,3.57 0.81,5.33c0.25,1.72 0.69,5.03 0.87,6.6c0.18,1.52 0.34,3.01 0.49,4.47c0.15,1.44 0.3,2.88 0.46,4.32c0.16,1.46 0.52,4.48 0.74,6.05c0.22,1.63 0.46,3.3 0.71,5.04c0.25,1.78 0.51,3.62 0.74,5.52c0.24,1.95 0.68,6.03 0.86,8.16c0.18,2.18 0.34,4.4 0.47,6.67c0.14,2.29 0.25,4.6 0.36,6.92c0.11,2.32 0.31,6.95 0.41,9.24c0.1,2.27 0.2,4.51 0.29,6.73c0.09,2.19 0.18,4.35 0.25,6.48c0.07,2.09 0.2,6.17 0.24,8.15c0.04,1.94 0.06,3.84 0.08,5.7c0.01,1.82 0.01,3.6 -0.01,5.34c-0.02,1.7 -0.1,4.98 -0.16,6.56c-0.06,1.54 -0.13,3.04 -0.21,4.51c-0.08,1.43 -0.17,2.83 -0.27,4.19c-0.09,1.33 -0.29,3.89 -0.4,5.12c-0.1,1.21 -0.2,2.39 -0.3,3.55c-0.1,1.14 -0.2,2.25 -0.3,3.35c-0.1,1.08 -0.3,3.2 -0.4,4.25c-0.1,1.04 -0.2,2.08 -0.29,3.12c-0.09,1.05 -0.18,2.1 -0.25,3.17c-0.08,1.09 -0.2,3.33 -0.24,4.5c-0.04,1.19 -0.07,2.39 -0.09,3.61c-0.02,1.22 -0.03,2.45 -0.03,3.67c0,1.21 -0.01,3.56 0,4.69c0,1.11 0,2.2 0.01,3.27c0.01,1.06 0.02,2.1 0.05,3.14c0.02,1.04 0.11,3.12 0.16,4.18c0.06,1.06 0.13,2.11 0.21,3.15c0.08,1.02 0.17,2.02 0.27,2.99c0.09,0.93 0.29,2.64 0.4,3.41c0.1,0.72 0.2,1.38 0.3,1.99c0.1,0.57 0.2,1.1 0.3,1.6l0.1,0.46" fill="none" id="svg_3" stroke="#000000"/>
  <path d="m179,140c1.61,0 2.56,0 3.46,0c0.88,0 1.56,0 2.4,0c1.31,0 2.03,0 2.77,0c0.75,0 1.49,0 2.89,0c0.65,0 1.58,0 2.49,0c0.9,0 1.84,-0.02 2.49,-0.09c1.04,-0.11 1.76,-0.26 2.82,-0.49c0.64,-0.14 1.86,-0.29 2.66,-0.59c0.84,-0.32 1.55,-0.85 2.03,-1.24c0.9,-0.75 1.35,-1.4 1.75,-2.05c0.59,-0.96 1.08,-1.77 1.46,-2.32c0.38,-0.55 1.19,-1.54 1.79,-2.23c0.4,-0.45 1.21,-1.42 1.6,-1.96c0.41,-0.56 1,-1.44 1.6,-2.34c0.4,-0.6 0.78,-1.19 1.4,-2.01c0.58,-0.78 1.17,-1.47 1.8,-2.02c0.77,-0.68 1.39,-1.04 2.2,-1.46c0.79,-0.41 1.59,-0.81 2.6,-1.3c0.61,-0.3 1.48,-0.66 2.49,-0.82c0.83,-0.13 1.43,-0.09 2.61,-0.31c0.9,-0.17 1.45,-0.4 2.53,-0.61c0.91,-0.18 1.71,-0.19 2.53,-0.59c0.87,-0.43 1.87,-0.33 2.55,-0.86c0.62,-0.48 1.43,-0.63 2.06,-1.14c0.59,-0.48 1.46,-0.69 2.31,-0.57c0.84,0.11 1.48,0.87 1.66,1.65c0.2,0.85 0.61,1.67 0.93,2.67c0.21,0.66 0.28,1.71 0.77,2.32c0.63,0.79 1.53,1.17 2.17,1.34c1.03,0.27 1.54,1 2.36,1.03c0.85,0.03 1.81,0 2.58,0c0.9,0 1.76,0 2.73,0c0.91,0 1.87,0 2.69,0c0.85,0 1.85,0.18 2.63,-0.09c0.89,-0.3 1.6,-0.9 2.5,-0.91c0.93,-0.02 1.51,-0.5 2.14,-0.97c0.66,-0.5 1.43,-0.85 2.23,-1.33c0.57,-0.35 1.51,-0.86 2.29,-1.34c0.79,-0.49 1.27,-0.81 2.38,-1.29c0.86,-0.37 1.4,-0.94 2.17,-1.54c0.65,-0.51 1.68,-0.67 2.34,-0.96c0.78,-0.34 1.54,-0.81 2.36,-1.13c0.98,-0.38 1.82,-0.29 2.78,-0.66c0.66,-0.26 1.51,-0.91 2.38,-0.77c0.88,0.13 1.67,0.75 2.34,1.05c0.82,0.36 1.58,0.95 2.47,0.95c0.72,0 1.66,0.02 2.67,0c0.79,-0.02 1.65,-0.28 2.34,-0.57l1.07,-0.37l0.86,-0.06" fill="none" id="svg_4" stroke="#000000"/>
  <path d="m288,202c0.08,-1.69 0.21,-2.22 0.67,-3.5c0.21,-0.6 0.47,-1.27 0.76,-2.03c0.32,-0.83 0.66,-1.74 1.01,-2.71c0.38,-1.03 0.78,-2.11 1.56,-4.43c0.41,-1.22 0.81,-2.48 1.21,-3.79c0.42,-1.35 0.83,-2.75 1.26,-4.2c0.44,-1.5 0.9,-3.06 1.86,-6.34c0.51,-1.73 1.04,-3.51 1.58,-5.35c0.56,-1.88 1.13,-3.8 1.71,-5.75c0.59,-1.98 1.18,-3.99 2.38,-8.07c0.6,-2.05 1.2,-4.11 1.8,-6.17c0.59,-2.05 1.18,-4.08 1.77,-6.1c0.58,-1.99 1.14,-3.95 2.27,-7.74c0.54,-1.83 1.08,-3.6 1.6,-5.31c0.5,-1.66 0.99,-3.25 1.45,-4.78c0.44,-1.46 0.87,-2.85 1.62,-5.41c0.34,-1.16 0.65,-2.24 0.92,-3.26c0.26,-0.94 0.49,-1.82 0.71,-2.65c0.2,-0.76 0.38,-1.48 0.7,-2.76c0.15,-0.58 0.28,-1.12 0.4,-1.62c0.12,-0.47 0.22,-0.9 0.32,-1.29c0.09,-0.36 0.17,-0.69 0.28,-1.25c0.05,-0.24 0.08,-0.44 0.11,-0.63c0.02,-0.16 0.04,-0.31 0.05,-0.44c0.01,-0.12 0.01,-0.23 0.01,-0.43c0,-0.1 0,-0.2 0,-0.29c0,-0.09 0,-0.17 0,-0.24c0,-0.06 0.04,-0.14 0,-0.14c-0.01,0 0,0.04 0,0.08c0,0.06 0,0.13 0,0.21c0,0.09 0,0.18 0,0.38c0,0.1 0,0.2 0,0.31c0,0.12 0,0.25 0,0.39c0,0.16 0,0.35 0,0.79c0,0.26 0,0.56 0,0.88c0,0.35 0,0.72 0,1.12c0,0.42 0,0.87 0,1.83c0,0.51 0,1.04 0,1.58c0,0.56 0,1.13 0,1.71c0,0.59 0,1.18 0,2.38c0,0.6 0,1.2 0,1.8c0,0.61 0,1.22 0,1.83c0,0.62 0,1.25 0,2.53c0,0.65 0,1.32 0,1.99c0,0.67 0,1.35 0,2.02c0,0.67 0,1.34 0,2.66c0,0.65 0,1.28 0,1.92c0,0.63 0,1.27 0,1.91c0,0.65 0,1.31 0,2.67c0,0.71 0,1.45 0,2.22c0,0.81 0,1.67 0,2.59c0,0.98 0,2.03 0,4.35c0,1.29 0,2.67 0,4.12c0,1.52 -0.01,3.09 -0.03,4.71c-0.02,1.67 -0.04,3.37 -0.13,6.83c-0.05,1.76 -0.12,3.52 -0.2,5.3c-0.08,1.79 -0.18,3.6 -0.29,5.42c-0.11,1.84 -0.23,3.69 -0.52,7.45c-0.15,1.91 -0.32,3.84 -0.49,5.79c-0.18,1.97 -0.38,3.96 -0.59,5.97c-0.21,2.03 -0.43,4.08 -0.92,8.24c-0.25,2.11 -0.52,4.24 -0.79,6.38c-0.27,2.15 -0.55,4.31 -0.82,6.48c-0.27,2.17 -0.55,4.33 -1.06,8.65c-0.25,2.14 -0.48,4.27 -0.71,6.38c-0.22,2.08 -0.44,4.14 -0.65,6.16c-0.21,1.98 -0.4,3.91 -0.81,7.63c-0.2,1.77 -0.4,3.49 -0.6,5.17c-0.2,1.65 -0.4,3.27 -0.6,4.87c-0.2,1.6 -0.4,3.2 -0.8,6.46c-0.2,1.67 -0.4,3.36 -0.6,5.1c-0.2,1.77 -0.4,3.59 -0.6,5.45c-0.2,1.91 -0.41,3.87 -0.8,7.95c-0.2,2.13 -0.4,4.3 -0.6,6.5c-0.2,2.21 -0.39,4.42 -0.57,6.61c-0.18,2.15 -0.35,4.25 -0.67,8.23c-0.15,1.85 -0.28,3.61 -0.4,5.28c-0.12,1.59 -0.22,3.11 -0.32,4.57c-0.09,1.4 -0.17,2.74 -0.28,5.31c-0.05,1.23 -0.08,2.44 -0.11,3.62c-0.02,1.15 -0.04,2.28 -0.05,3.38c-0.01,1.08 -0.01,2.13 -0.01,4.17c0,0.99 0,1.96 0,2.91c0,0.94 0,1.86 0,2.76c0,0.89 0,1.77 0,3.49c0,0.84 0,1.68 0,2.5c0,0.8 0,1.59 0,2.35c0,0.74 0,1.46 0,2.82c0,0.64 0,1.25 0,1.84c0,0.58 0,1.16 0,1.73c0,0.58 0,1.18 0,2.42c0,0.66 0,1.35 0,2.06c0,0.72 0,1.46 0,2.2c0,0.74 0,1.47 0,2.91c0,0.69 0,1.36 0,2.01c0,0.62 0,1.22 0,1.8c0,0.55 0,1.07 0,2.03c0,0.44 0,0.84 0,1.22c0,0.36 0,0.69 0,1.01c0,0.3 0,0.58 0,1.1c0,0.24 0,0.48 0,0.7c0,0.21 0,0.4 0,0.58c0,0.16 0,0.31 0,0.55c0,0.09 0,0.16 0,0.22c0,0.04 0,0.07 0,0.09c0,0.01 0,0.02 0,0.02c0,0 0,0 0,-0.01c0,-0.01 0,-0.03 0,-0.06c0,-0.04 0,-0.1 0,-0.26c0,-0.11 0,-0.24 0,-0.38c0,-0.15 -0.02,-0.31 -0.03,-0.48l-0.02,-0.17l-0.03,-0.17" fill="none" id="svg_5" stroke="#000000"/>
  <path d="m383,126c-0.22,3.53 -0.28,4.11 -0.37,4.75c-0.18,1.4 -0.31,2.15 -0.45,2.94c-0.15,0.81 -0.51,2.48 -0.72,3.34c-0.22,0.87 -0.47,1.77 -0.74,2.69c-0.28,0.96 -0.58,1.95 -0.88,2.99c-0.32,1.09 -1,3.46 -1.36,4.75c-0.37,1.35 -0.74,2.75 -1.11,4.2c-0.39,1.49 -0.78,3.02 -1.17,4.58c-0.4,1.58 -1.2,4.77 -1.6,6.37c-0.4,1.6 -0.8,3.21 -1.19,4.82c-0.39,1.62 -0.78,3.25 -1.15,4.89c-0.38,1.66 -1.1,5.02 -1.44,6.73c-0.34,1.72 -0.67,3.44 -0.99,5.17c-0.32,1.71 -0.62,3.4 -0.93,5.06c-0.3,1.63 -0.9,4.74 -1.2,6.21c-0.3,1.43 -0.6,2.82 -0.92,4.19c-0.32,1.36 -0.65,2.73 -0.99,4.11c-0.35,1.42 -1.12,4.39 -1.53,5.98c-0.42,1.64 -0.86,3.31 -1.3,5.01c-0.44,1.7 -0.88,3.39 -1.3,5.06c-0.41,1.62 -1.17,4.68 -1.5,6.09c-0.31,1.33 -0.6,2.6 -0.88,3.81c-0.27,1.18 -0.52,2.33 -0.79,3.47c-0.26,1.14 -0.83,3.48 -1.14,4.7c-0.32,1.26 -0.67,2.55 -1.03,3.88c-0.37,1.36 -0.75,2.75 -1.14,4.17c-0.39,1.44 -1.19,4.4 -1.59,5.91c-0.4,1.52 -0.79,3.03 -1.17,4.52c-0.37,1.47 -0.73,2.9 -1.06,4.27c-0.32,1.31 -0.87,3.7 -1.11,4.75c-0.21,0.96 -0.4,1.84 -0.57,2.64c-0.16,0.74 -0.3,1.43 -0.44,2.07c-0.13,0.6 -0.42,1.74 -0.58,2.28c-0.16,0.54 -0.33,1.06 -0.5,1.56c-0.17,0.5 -0.35,0.98 -0.52,1.44c-0.17,0.45 -0.49,1.29 -0.63,1.68c-0.14,0.37 -0.26,0.72 -0.38,1.06c-0.11,0.32 -0.2,0.62 -0.29,0.92c-0.08,0.28 -0.2,0.8 -0.24,1.04c-0.04,0.23 -0.07,0.46 -0.1,0.67c-0.03,0.2 -0.05,0.4 -0.08,0.59c-0.03,0.18 -0.11,0.5 -0.17,0.64c-0.06,0.14 -0.13,0.27 -0.2,0.39c-0.07,0.12 -0.15,0.22 -0.22,0.33c-0.07,0.1 -0.19,0.3 -0.23,0.4c-0.04,0.1 -0.07,0.2 -0.09,0.29c-0.02,0.09 -0.03,0.17 -0.03,0.25c0,0.07 0,0.19 0,0.24c0,0.04 0,0.06 0,0.09c0,0.02 0,0.03 0,0.03c0,0 0,0 0,0c0,0 0.01,-0.01 0.03,-0.02c0.03,-0.02 0.08,-0.05 0.14,-0.09c0.08,-0.06 0.33,-0.22 0.49,-0.33c0.19,-0.13 0.41,-0.27 0.66,-0.43c0.27,-0.17 0.57,-0.35 0.9,-0.54c0.35,-0.2 1.1,-0.59 1.52,-0.79c0.43,-0.21 0.9,-0.42 1.4,-0.63c0.54,-0.23 1.13,-0.48 1.76,-0.74c0.69,-0.29 2.26,-0.93 3.14,-1.29c0.95,-0.39 1.96,-0.81 3.02,-1.25c1.11,-0.46 2.27,-0.95 3.47,-1.45c1.23,-0.52 3.79,-1.59 5.1,-2.15c1.33,-0.56 2.68,-1.14 4.04,-1.74c1.38,-0.6 2.78,-1.22 4.18,-1.86c1.42,-0.65 4.3,-2.01 5.76,-2.72c1.47,-0.72 2.94,-1.47 4.41,-2.23c1.49,-0.77 2.98,-1.55 4.47,-2.34c1.5,-0.79 4.49,-2.39 6,-3.19c1.5,-0.8 3.02,-1.6 4.55,-2.38c1.55,-0.79 3.12,-1.56 4.73,-2.31c1.64,-0.76 5.04,-2.2 6.82,-2.87c1.81,-0.68 3.67,-1.33 5.57,-1.92c1.92,-0.6 3.87,-1.15 5.84,-1.63c1.98,-0.49 5.97,-1.28 7.98,-1.59c2,-0.3 4.01,-0.53 6.02,-0.71c2.02,-0.17 4.05,-0.29 6.09,-0.36c2.06,-0.07 6.22,-0.11 8.33,-0.09c2.11,0.02 4.21,0.07 6.27,0.14c2.02,0.07 3.97,0.16 5.84,0.28c1.77,0.11 4.95,0.39 6.33,0.56c1.24,0.15 2.36,0.32 3.36,0.51c0.91,0.17 1.73,0.37 2.48,0.57c0.69,0.19 1.95,0.59 2.54,0.8c0.57,0.2 1.11,0.39 1.63,0.59c0.49,0.19 0.95,0.37 1.38,0.55l0.39,0.17" fill="none" id="svg_6" stroke="#000000"/>
  <path d="m386,130c0,4.53 0,5.3 0,5.75c0,1.09 0,1.76 0,3.42c0,1.01 0,2.14 0,3.37c0,1.31 0,2.7 0,4.13c0,1.48 0,2.98 0,6c0,1.49 0,2.97 0,4.44c0,1.47 0,2.95 0,4.45c0,1.52 0,3.07 0,6.27c0,1.67 0,3.39 0.01,5.16c0.01,1.8 0.03,3.63 0.06,5.5c0.04,1.89 0.07,3.8 0.26,7.68c0.1,1.96 0.23,3.92 0.39,5.9c0.16,2 0.34,4.01 0.54,6.05c0.2,2.06 0.42,4.14 0.91,8.38c0.25,2.17 0.52,4.36 0.8,6.58c0.28,2.24 0.58,4.51 0.89,6.79c0.31,2.3 0.63,4.62 1.32,9.3c0.35,2.35 0.71,4.71 1.08,7.06c0.36,2.34 0.72,4.65 1.06,6.93c0.33,2.25 0.67,4.44 1.2,8.67c0.25,2.02 0.45,3.98 0.63,5.9c0.18,1.89 0.33,3.77 0.47,5.65c0.14,1.89 0.27,3.81 0.56,7.79c0.15,2.08 0.32,4.24 0.48,6.45c0.17,2.28 0.34,4.61 0.49,7c0.16,2.44 0.32,4.93 0.53,10.05c0.11,2.62 0.17,5.26 0.22,7.9c0.05,2.64 0.08,5.24 0.09,7.8c0.02,2.5 0.02,4.92 0.02,9.46c0,2.09 0,4.05 0,5.9c0,1.74 0,3.39 0,4.95c0,1.47 0,2.87 0,5.49c0,1.22 0,2.4 0,3.52c0,1.06 0,2.07 0,3.01l0,0.88l0,0.82" fill="none" id="svg_7" stroke="#000000"/>
  <path d="m581,124c-1.3,0.01 -2.07,-0.02 -3.08,0.22c-0.72,0.17 -1.43,0.54 -2.25,0.94c-0.98,0.48 -1.71,0.84 -2.09,1.01c-0.78,0.35 -1.98,0.81 -2.78,1.08c-0.8,0.27 -1.62,0.52 -2.8,1.08c-0.41,0.2 -1.2,0.67 -2,1.19c-0.8,0.52 -1.19,0.82 -2.4,1.56c-0.79,0.48 -1.2,0.69 -2,1.15c-0.8,0.46 -2,1.19 -2.4,1.46c-0.81,0.56 -1.21,0.86 -2,1.53c-0.41,0.35 -1.6,1.52 -2,1.95c-0.41,0.45 -1.24,1.41 -1.67,1.92c-0.44,0.53 -0.9,1.08 -1.86,2.24c-0.51,0.61 -1.04,1.24 -1.57,1.88c-0.54,0.66 -1.08,1.32 -1.61,2.01c-0.53,0.68 -1.06,1.36 -1.99,2.78c-0.45,0.69 -0.85,1.4 -1.23,2.11c-0.38,0.71 -0.73,1.45 -1.07,2.19c-0.35,0.76 -0.68,1.55 -1.36,3.19c-0.36,0.86 -0.72,1.75 -1.09,2.66c-0.37,0.92 -0.75,1.84 -1.12,2.77c-0.37,0.92 -0.74,1.83 -1.46,3.58c-0.34,0.84 -0.68,1.64 -1,2.43c-0.31,0.76 -0.61,1.51 -0.88,2.24c-0.27,0.72 -0.54,1.42 -0.95,2.83c-0.2,0.7 -0.37,1.4 -0.52,2.1c-0.15,0.7 -0.29,1.4 -0.42,2.1c-0.13,0.7 -0.26,1.4 -0.55,2.8c-0.15,0.7 -0.32,1.4 -0.49,2.1c-0.17,0.71 -0.35,1.42 -0.52,2.13c-0.17,0.72 -0.36,1.45 -0.66,2.93c-0.15,0.75 -0.29,1.52 -0.41,2.29c-0.13,0.78 -0.24,1.58 -0.35,2.38c-0.11,0.81 -0.21,1.64 -0.41,3.32c-0.1,0.85 -0.2,1.72 -0.3,2.58c-0.1,0.87 -0.2,1.73 -0.3,2.59c-0.1,0.85 -0.2,1.69 -0.4,3.33c-0.1,0.79 -0.2,1.56 -0.3,2.32c-0.1,0.75 -0.2,1.49 -0.3,2.22c-0.1,0.73 -0.2,1.47 -0.4,2.95c-0.1,0.75 -0.2,1.52 -0.3,2.29c-0.1,0.78 -0.2,1.56 -0.3,2.35c-0.1,0.79 -0.2,1.59 -0.4,3.19c-0.1,0.8 -0.2,1.6 -0.3,2.4c-0.1,0.8 -0.19,1.6 -0.27,2.4c-0.08,0.8 -0.16,1.6 -0.27,3.2c-0.05,0.8 -0.08,1.6 -0.11,2.4c-0.02,0.8 -0.04,1.6 -0.05,2.4c-0.01,0.8 -0.01,1.6 -0.01,3.2c0,0.8 0,1.6 0,2.4c0,0.79 0,1.58 0,2.37c0,0.78 0,1.55 0,3.07c0,0.75 0,1.49 0,2.24c0,0.76 0,1.53 0,2.34c0,0.83 0,1.71 0,3.59c0,1.03 0,2.11 0,3.22c0,1.14 0,2.3 0,3.46c0,1.16 0,2.3 0,4.48c0,1.03 0,2.01 0,2.96c0,0.92 0,1.81 0,2.7c0,0.87 0,1.75 0,3.51c0,0.91 0,1.84 0,2.78c0,0.95 0.01,1.91 0.03,2.88c0.02,0.97 0.03,1.93 0.13,3.85c0.05,0.95 0.12,1.88 0.19,2.81c0.08,0.93 0.16,1.85 0.25,2.78c0.09,0.93 0.19,1.86 0.39,3.74c0.1,0.95 0.2,1.92 0.3,2.88c0.1,0.97 0.2,1.93 0.3,2.89c0.1,0.95 0.2,1.89 0.4,3.73c0.1,0.89 0.2,1.76 0.31,2.61c0.11,0.83 0.23,1.64 0.36,2.43c0.13,0.77 0.26,1.53 0.66,2.96c0.19,0.69 0.43,1.36 0.68,2.01c0.25,0.63 0.52,1.24 0.81,1.83c0.28,0.57 0.57,1.13 1.18,2.16c0.29,0.49 0.6,0.96 0.9,1.41c0.3,0.43 0.6,0.84 0.9,1.23c0.3,0.37 0.58,0.73 1.2,1.36c0.29,0.3 0.6,0.57 0.9,0.82c0.3,0.25 0.6,0.48 0.9,0.69c0.3,0.21 0.6,0.42 1.2,0.82c0.3,0.2 0.6,0.4 0.9,0.6c0.87,0.57 1.41,0.94 2.42,1.52c0.66,0.38 1.68,0.89 2.29,1.19c0.85,0.41 1.81,0.81 2.35,1c0.82,0.28 1.88,0.55 2.82,0.68c0.68,0.09 1.65,0.24 2.45,0.45c0.82,0.22 1.85,0.49 2.75,0.55c0.62,0.04 1.63,0.02 2.48,0.02c0.96,0 1.77,0 2.59,0c1.03,0 1.95,0.07 2.95,-0.17c0.81,-0.19 1.55,-0.59 2.25,-1.14c0.68,-0.54 1.26,-1.16 1.93,-1.91c0.68,-0.77 1.06,-1.39 1.52,-2.13c0.49,-0.78 1.05,-1.45 1.4,-2.2c0.33,-0.7 0.59,-1.5 0.78,-2.54c0.16,-0.89 0.25,-1.94 0.56,-2.72c0.24,-0.61 0.8,-1.58 1.13,-2.4c0.31,-0.78 0.42,-1.6 0.43,-2.4c0.02,-1 0,-1.8 0,-2.8c0,-0.83 0,-1.77 0,-2.55c0,-0.82 0,-1.88 0,-2.81c0,-0.83 0,-1.83 0,-2.58c0,-1.02 0.17,-1.97 0,-2.86c-0.17,-0.85 -0.88,-1.21 -1.69,-1.69c-0.73,-0.43 -1.53,-0.93 -2.3,-1.46c-0.68,-0.48 -1.31,-1.07 -2.18,-1.65c-0.63,-0.43 -1.66,-0.9 -2.33,-0.98c-0.98,-0.12 -1.88,0.01 -2.75,-0.37c-0.67,-0.3 -1.6,-0.6 -2.21,-0.7c-1.23,-0.19 -1.77,-0.4 -2.64,-0.59c-1.19,-0.27 -1.79,-0.28 -2.66,-0.38c-1.07,-0.12 -1.79,-0.32 -2.69,-0.68c-0.97,-0.39 -1.78,-0.71 -2.36,-0.86c-1.18,-0.31 -1.79,-0.38 -2.65,-0.42c-1.21,-0.06 -2.02,-0.02 -2.86,-0.02c-0.85,0 -1.79,0 -2.56,0c-0.94,0.01 -2,0.09 -2.6,0.52c-0.8,0.58 -1.35,1.31 -1.95,1.9c-0.66,0.66 -1.02,1.4 -1.6,2.14c-0.48,0.63 -1.36,1.01 -1.85,1.66c-0.54,0.7 -0.94,1.37 -1.12,2.28c-0.17,0.84 -0.32,1.65 -0.72,2.3c-0.47,0.78 -1.12,1.37 -1.28,2.2l0,0.87l-0.5,0.62" fill="none" id="svg_9" stroke="#000000"/>
 </g>
</svg>